<svg width="141" height="36" viewBox="0 0 141 36" fill="none" xmlns="http://www.w3.org/2000/svg">
<g clip-path="url(#clip0_1_6299)">
<path d="M65.5907 28.0802C63.5164 28.0802 61.7375 27.6513 60.2541 26.7932C58.7827 25.9232 57.6551 24.7691 56.8712 23.331C56.0872 21.893 55.6953 20.3099 55.6953 18.5819V17.893C55.6953 15.9475 56.0632 14.2073 56.7988 12.6726C57.5345 11.1379 58.5898 9.93551 59.9646 9.06538C61.3516 8.18323 63.0158 7.74219 64.9575 7.74219C66.851 7.74219 68.443 8.14094 69.7334 8.93854C71.036 9.73613 72.0249 10.8599 72.7002 12.3101C73.3756 13.7481 73.7133 15.446 73.7133 17.4037V19.7964H58.0289V16.0079H68.1777V15.5547C68.1656 14.9022 68.045 14.3342 67.8158 13.8509C67.5867 13.3554 67.2309 12.9747 66.7485 12.7089C66.2781 12.4309 65.6691 12.292 64.9214 12.292C64.029 12.292 63.3234 12.5457 62.8048 13.0533C62.2862 13.5488 61.9123 14.2194 61.6832 15.0654C61.4662 15.8992 61.3575 16.8418 61.3575 17.893V18.5819C61.3575 19.5608 61.5385 20.4187 61.9003 21.1559C62.2621 21.893 62.7868 22.4731 63.4742 22.896C64.1616 23.3069 64.9878 23.5123 65.9525 23.5123C66.8571 23.5123 67.7073 23.3492 68.5033 23.0229C69.3113 22.6846 70.0048 22.1468 70.5837 21.4096L73.261 24.5637C72.658 25.4458 71.7052 26.2555 70.4028 26.9926C69.1002 27.7177 67.4962 28.0802 65.5907 28.0802Z" fill="#2E54D4"/>
<path d="M91.7457 27.7184H76.8208V23.1686H91.7457V27.7184ZM79.1541 27.7184H75.3555V24.3469L87.6753 8.10547H91.5102V11.3682L79.1541 27.7184ZM89.5742 12.6733H75.6449V8.10547H89.5742V12.6733Z" fill="#2E54D4"/>
<path d="M104.84 22.2254C104.84 21.8749 104.732 21.5728 104.515 21.319C104.309 21.0653 103.924 20.8296 103.357 20.612C102.803 20.3825 102 20.1589 100.951 19.9414C99.6363 19.6514 98.4548 19.2586 97.4051 18.7632C96.3561 18.2556 95.5241 17.6091 94.9089 16.8236C94.3062 16.026 94.004 15.0593 94.004 13.9233C94.004 12.8236 94.3178 11.8025 94.9453 10.8599C95.5721 9.91735 96.477 9.16212 97.6584 8.59409C98.8407 8.02613 100.264 7.74219 101.928 7.74219C103.652 7.74219 105.136 8.01403 106.378 8.55786C107.632 9.10169 108.598 9.85087 109.272 10.8056C109.948 11.7602 110.286 12.8599 110.286 14.1046H104.642C104.642 13.3675 104.424 12.7813 103.99 12.3464C103.568 11.9113 102.875 11.6938 101.91 11.6938C101.415 11.6938 100.975 11.7783 100.589 11.9475C100.215 12.1167 99.926 12.3464 99.7207 12.6363C99.5162 12.9143 99.4132 13.2466 99.4132 13.6333C99.4132 13.9837 99.5216 14.2979 99.7393 14.5759C99.9679 14.8418 100.33 15.0774 100.825 15.2828C101.331 15.4762 102.006 15.6514 102.851 15.8085C104.225 16.0622 105.474 16.4188 106.595 16.878C107.729 17.3251 108.633 17.9595 109.309 18.7812C109.984 19.5909 110.322 20.6725 110.322 22.0259C110.322 23.186 109.978 24.2253 109.291 25.1437C108.603 26.05 107.632 26.7691 106.378 27.3008C105.124 27.8204 103.646 28.0802 101.946 28.0802C100.089 28.0802 98.5207 27.7479 97.2424 27.0833C95.9765 26.4065 95.0112 25.5607 94.348 24.5455C93.6965 23.5184 93.3711 22.4731 93.3711 21.4096H98.7082C98.7438 22.038 98.9127 22.5516 99.2141 22.9504C99.5162 23.3492 99.9136 23.6452 100.408 23.8386C100.903 24.0199 101.458 24.1105 102.073 24.1105C102.688 24.1105 103.195 24.032 103.592 23.8749C104.003 23.7178 104.309 23.5002 104.515 23.2223C104.732 22.9323 104.84 22.5999 104.84 22.2254Z" fill="#2E54D4"/>
<path d="M118.908 27.7179H113.246V8.10495H118.908V27.7179ZM112.902 3.06573C112.902 2.21982 113.186 1.53101 113.752 0.999289C114.332 0.455493 115.097 0.183594 116.05 0.183594C117.003 0.183594 117.762 0.455493 118.329 0.999289C118.908 1.53101 119.198 2.21982 119.198 3.06573C119.198 3.89955 118.908 4.58836 118.329 5.13216C117.762 5.67596 117.003 5.94786 116.05 5.94786C115.097 5.94786 114.332 5.67596 113.752 5.13216C113.186 4.58836 112.902 3.89955 112.902 3.06573Z" fill="#2E54D4"/>
<path d="M128.112 35.2584H122.449V8.10472H127.696L128.112 11.8751V35.2584ZM140.322 18.0562C140.322 19.9656 140.027 21.6755 139.436 23.186C138.857 24.6966 138.001 25.8929 136.867 26.7751C135.746 27.6452 134.359 28.0802 132.707 28.0802C131.115 28.0802 129.806 27.6331 128.781 26.7389C127.768 25.8446 126.977 24.6543 126.411 23.1679C125.844 21.6694 125.434 20.02 125.181 18.2193V17.8024C125.422 15.8689 125.826 14.1469 126.393 12.6364C126.96 11.1258 127.75 9.93551 128.762 9.06538C129.788 8.18323 131.097 7.74219 132.688 7.74219C134.34 7.74219 135.733 8.1591 136.867 8.99292C138.001 9.81464 138.857 10.9748 139.436 12.4732C140.027 13.9596 140.322 15.6937 140.322 17.6756V18.0562ZM134.66 17.6756C134.66 16.6484 134.546 15.736 134.316 14.9384C134.1 14.1287 133.738 13.4944 133.231 13.0351C132.724 12.5638 132.049 12.3282 131.205 12.3282C130.542 12.3282 129.975 12.4309 129.505 12.6364C129.046 12.8418 128.673 13.1499 128.383 13.5608C128.093 13.9596 127.876 14.4611 127.731 15.0654C127.587 15.6574 127.508 16.3463 127.497 17.1318V18.89C127.521 19.7843 127.653 20.5819 127.895 21.2828C128.147 21.9836 128.539 22.5335 129.07 22.9323C129.613 23.331 130.337 23.5305 131.241 23.5305C132.098 23.5305 132.772 23.2827 133.267 22.7873C133.774 22.2918 134.13 21.6332 134.334 20.8115C134.552 19.9777 134.66 19.0592 134.66 18.0562V17.6756Z" fill="#2E54D4"/>
<path d="M21.5741 3.47266L0.0585938 24.7447H15.5697L11.9005 21.1169L21.5741 11.5527L28.9127 18.8083L32.999 14.7682L21.5741 3.47266Z" fill="#2E54D4"/>
<path d="M25.6592 32.2466L47.1748 10.9746H31.6636L35.3329 14.6024L25.6592 24.1665L18.3207 16.911L14.2344 20.9511L25.6592 32.2466Z" fill="#007A5C"/>
</g>
<defs>
<clipPath id="clip0_1_6299">
<rect width="141" height="36" fill="white"/>
</clipPath>
</defs>
</svg>
